# xmcd
#
# Track frame offsets: 
#        150
#        11953
#        27380
#        42336
#        56322
#        70038
#        93784
#        115222
#        132239
#        146824
#        171350
#        187586
#        206849
#        222982
#        238890
#        253143
#        284098
#        298418
#        313777
#        338117
#
# Disc length: 4700 seconds
#
# Revision: 0
# Processed by: cddbd v1.5.2PL0 Copyright (c) Steve Scherf et al.
# Submitted via: ExactAudioCopy v0.99pb5
#
DISCID=42125a14
DTITLE=John Hiatt - Hangin' Around The Observatory and Overcoats {2006 B
DTITLE=GO Twofer, Rem}
DYEAR=1974
DGENRE=Rock
TTITLE0=Maybe Baby, Say You Do
TTITLE1=Whistles In My Ears
TTITLE2=Sure As I'm Sittin' Here
TTITLE3=Rose
TTITLE4=Hangin' Around The Observatory
TTITLE5=Full Moon
TTITLE6=Wild-Eyed Gypsies
TTITLE7=It's All Right With Me
TTITLE8=Little Blue Song For You
TTITLE9=Ocean
TTITLE10=One More Time
TTITLE11=Smiling In The Rain
TTITLE12=I'm Tired Of Your Stuff
TTITLE13=Distance
TTITLE14=Down Home
TTITLE15=Overcoats
TTITLE16=I Want Your Love Inside Of Me
TTITLE17=I Killed An Ant With My Guitar
TTITLE18=Motorboat To Heaven
TTITLE19=The Lady Of The Night
EXTD=
EXTT0=
EXTT1=
EXTT2=
EXTT3=
EXTT4=
EXTT5=
EXTT6=
EXTT7=
EXTT8=
EXTT9=
EXTT10=
EXTT11=
EXTT12=
EXTT13=
EXTT14=
EXTT15=
EXTT16=
EXTT17=
EXTT18=
EXTT19=
PLAYORDER=
